<svg width="15.000000" height="20.000000" viewBox="0 0 15 20" fill="none" xmlns="http://www.w3.org/2000/svg" xmlns:xlink="http://www.w3.org/1999/xlink">
	<desc>
			Created with Pixso.
	</desc>
	<defs/>
	<path id="Book Mark" d="M11.61 -0.12C8.71 -0.61 5.73 -0.61 2.83 -0.12C1.77 0.06 0.93 0.87 0.71 1.93C-0.26 6.76 -0.31 11.73 0.56 16.59L0.91 18.56C1.02 19.17 1.76 19.42 2.21 18.99L6.49 14.93C6.9 14.54 7.54 14.54 7.95 14.93L12.23 18.99C12.68 19.42 13.42 19.17 13.53 18.56L13.89 16.59C14.76 11.73 14.7 6.76 13.73 1.93C13.52 0.87 12.67 0.06 11.61 -0.12Z" fill="#6C5FBC" fill-opacity="1.000000" fill-rule="nonzero"/>
</svg>
