<svg width="22.000000" height="17.000000" viewBox="0 0 22 17" fill="none" xmlns="http://www.w3.org/2000/svg" xmlns:xlink="http://www.w3.org/1999/xlink">
	<path id="Icon" d="M-0.43 3.91C-0.76 6.9 -0.75 10.35 -0.28 13.33C-0.02 14.98 1.39 16.24 3.12 16.38L4.94 16.53C8.73 16.85 12.53 16.85 16.32 16.53L18.14 16.38C19.87 16.24 21.28 14.98 21.54 13.33C22.01 10.35 22.02 6.9 21.69 3.91C21.64 3.57 21.59 3.22 21.54 2.88C21.28 1.23 19.87 -0.03 18.14 -0.18L16.32 -0.33C12.53 -0.64 8.73 -0.64 4.94 -0.33L3.12 -0.18C1.39 -0.03 -0.02 1.23 -0.28 2.88C-0.33 3.22 -0.38 3.57 -0.43 3.91ZM5.1 1.39C8.78 1.08 12.48 1.08 16.16 1.39L17.98 1.54C18.89 1.61 19.62 2.27 19.76 3.13C19.77 3.22 19.78 3.31 19.8 3.4L13.11 6.95C11.57 7.77 9.69 7.77 8.15 6.95L1.46 3.4C1.48 3.31 1.49 3.22 1.5 3.13C1.64 2.27 2.37 1.61 3.28 1.54L5.1 1.39ZM20.02 5.25C20.25 7.86 20.16 10.48 19.76 13.07C19.62 13.93 18.89 14.59 17.98 14.67L16.16 14.82C12.48 15.12 8.78 15.12 5.1 14.82L3.28 14.67C2.37 14.59 1.64 13.93 1.5 13.07C1.1 10.48 1.01 7.86 1.24 5.25L7.27 8.45C9.36 9.56 11.9 9.56 13.99 8.45L20.02 5.25Z" fill="#C2C3CB" fill-opacity="1.000000" fill-rule="evenodd"/>
</svg>
