<svg width="21.000000" height="18.000000" viewBox="0 0 21 18" fill="none" xmlns="http://www.w3.org/2000/svg" xmlns:xlink="http://www.w3.org/1999/xlink">
	<desc>
			Created with Pixso.
	</desc>
	<defs/>
	<path id="Icon" d="M-0.98 5.66C-0.98 2.27 1.99 -0.34 5.48 -0.34C7.28 -0.34 8.86 0.51 9.99 1.6C11.13 0.51 12.71 -0.34 14.51 -0.34C18 -0.34 20.97 2.27 20.97 5.66C20.97 7.98 19.98 10.02 18.61 11.74C17.24 13.47 15.45 14.93 13.74 16.12C13.08 16.57 12.42 16.99 11.81 17.3C11.24 17.59 10.59 17.85 9.99 17.85C9.4 17.85 8.74 17.59 8.17 17.3C7.57 16.99 6.91 16.57 6.25 16.12C4.54 14.93 2.75 13.47 1.38 11.74C0.01 10.02 -0.98 7.98 -0.98 5.66ZM5.48 1.54C2.87 1.54 0.9 3.46 0.9 5.66C0.9 7.42 1.65 9.06 2.85 10.57C4.06 12.09 5.68 13.43 7.32 14.57C7.94 15 8.53 15.36 9.03 15.62C9.56 15.89 9.88 15.97 9.99 15.97C10.11 15.97 10.42 15.89 10.96 15.62C11.46 15.36 12.04 15 12.66 14.57C14.3 13.43 15.93 12.09 17.13 10.57C18.34 9.06 19.09 7.42 19.09 5.66C19.09 3.46 17.12 1.54 14.51 1.54C13.01 1.54 11.61 2.44 10.74 3.58C10.56 3.81 10.29 3.94 9.99 3.94C9.7 3.94 9.42 3.81 9.25 3.58C8.37 2.44 6.97 1.54 5.48 1.54Z" fill="#323142" fill-opacity="1.000000" fill-rule="evenodd"/>
</svg>
