<svg width="18.000000" height="23.000000" viewBox="0 0 18 23" fill="none" xmlns="http://www.w3.org/2000/svg" xmlns:xlink="http://www.w3.org/1999/xlink">
	<desc>
			Created with Pixso.
	</desc>
	<defs/>
	<path id="Icon" d="M2.87 5.77L3.26 9.25L2.42 9.32C1.09 9.43 0.01 10.42 -0.21 11.74C-0.66 14.48 -0.66 17.28 -0.21 20.02C0.01 21.34 1.09 22.34 2.42 22.44L4.25 22.59C7.17 22.82 10.1 22.82 13.01 22.59L14.85 22.44C16.17 22.34 17.26 21.34 17.47 20.02C17.92 17.28 17.92 14.48 17.47 11.74C17.26 10.42 16.17 9.43 14.85 9.32L14 9.25L14.39 5.77C14.44 5.32 14.44 4.87 14.39 4.43L14.36 4.18C14.07 1.51 11.97 -0.6 9.31 -0.91C8.86 -0.97 8.41 -0.97 7.96 -0.91C5.29 -0.6 3.2 1.51 2.9 4.18L2.87 4.43C2.82 4.87 2.82 5.32 2.87 5.77ZM9.09 0.91C8.79 0.88 8.48 0.88 8.17 0.91C6.36 1.13 4.93 2.56 4.73 4.38L4.7 4.63C4.67 4.94 4.67 5.26 4.7 5.57L5.1 9.11C7.45 8.96 9.81 8.96 12.17 9.11L12.56 5.57C12.6 5.26 12.6 4.94 12.56 4.63L12.53 4.38C12.33 2.56 10.9 1.13 9.09 0.91ZM4.4 11.01C7.22 10.78 10.05 10.78 12.86 11.01L14.7 11.16C15.18 11.19 15.58 11.56 15.66 12.04C16.07 14.58 16.07 17.18 15.66 19.73C15.58 20.2 15.18 20.57 14.7 20.61L12.86 20.75C10.05 20.98 7.22 20.98 4.4 20.75L2.57 20.61C2.08 20.57 1.69 20.2 1.61 19.73C1.19 17.18 1.19 14.58 1.61 12.04C1.69 11.56 2.08 11.19 2.57 11.16L4.4 11.01ZM8.63 14.04C7.62 14.04 6.79 14.87 6.79 15.88C6.79 16.9 7.62 17.72 8.63 17.72C9.65 17.72 10.47 16.9 10.47 15.88C10.47 14.87 9.65 14.04 8.63 14.04Z" fill="#C2C3CB" fill-opacity="1.000000" fill-rule="evenodd"/>
</svg>
