<svg width="112.000000" height="43.000000" viewBox="0 0 112 43" fill="none" xmlns="http://www.w3.org/2000/svg" xmlns:xlink="http://www.w3.org/1999/xlink">
	<desc>
			Created with Pixso.
	</desc>
	<defs/>
	<rect id="Back" x="3.673828" y="4.978516" rx="6.969510" width="42.267368" height="37.336658" fill="#6C5FBC" fill-opacity="1.000000"/>
	<rect id="Front" rx="8.969510" width="42.267368" height="37.336658" fill="#DBD9EE" fill-opacity="1.000000"/>
	<rect id="Front" x="1.007812" y="1.007812" rx="6.969510" width="40.252373" height="35.321663" stroke="#6C5FBC" stroke-opacity="1.000000" stroke-width="2.014994"/>
	<path id="Vector" d="M32.62 12.05L9.72 11.94" stroke="#6C5FBC" stroke-opacity="1.000000" stroke-width="2.084320" stroke-linejoin="round" stroke-linecap="round"/>
	<path id="Vector" d="M32.6 16.63L27.51 16.61C25.4 16.6 23.7 14.54 23.71 12.01C23.72 9.47 25.43 7.43 27.54 7.44L32.63 7.46" stroke="#6C5FBC" stroke-opacity="1.000000" stroke-width="2.084320" stroke-linejoin="round" stroke-linecap="round"/>
	<path id="Vector" d="M10.7 26.64C10.16 26.64 9.7 26.1 9.69 25.45L9.65 23.72C9.63 23.04 10.09 22.46 10.66 22.46L17.25 22.53L17.36 26.72L10.7 26.64Z" stroke="#6C5FBC" stroke-opacity="1.000000" stroke-width="2.084320" stroke-linejoin="round"/>
	<path id="Vector" d="M18.4 29.09C17.86 29.09 17.4 28.55 17.39 27.89L17.27 22.52L32.55 22.71L32.56 23.39C32.64 26.64 30.5 29.25 27.81 29.21L18.4 29.09Z" stroke="#6C5FBC" stroke-opacity="1.000000" stroke-width="2.084320" stroke-linejoin="round"/>
	<path id="eatly" d="M97 27.76L97 12.09L94.04 12.09L94.04 27.76L97 27.76ZM89.27 24.14L89.27 18.47L91.9 18.47L91.9 16.03L89.27 16.03L89.27 13.13L86.29 13.13L86.29 16.03L84.89 16.03L84.89 18.47L86.29 18.47L86.29 24.12Q86.29 25.89 87.17 26.8Q88.11 27.76 90.04 27.76L91.9 27.76L91.9 25.26L90.52 25.26Q89.84 25.26 89.55 25Q89.27 24.73 89.27 24.14ZM69.22 22.78Q69.3 22.28 69.3 21.64Q69.3 19.97 68.61 18.67Q68.59 18.64 68.57 18.6Q68.2 17.92 67.67 17.41Q67.16 16.91 66.52 16.56Q66.4 16.49 66.27 16.43Q65.04 15.84 63.52 15.84Q61.83 15.84 60.51 16.55Q60.48 16.57 60.45 16.58Q59.89 16.89 59.43 17.32Q58.81 17.9 58.37 18.7Q57.63 20.07 57.63 21.89Q57.63 23.7 58.38 25.07Q58.8 25.84 59.41 26.41Q59.89 26.87 60.48 27.2Q60.66 27.3 60.84 27.39Q62.05 27.95 63.52 27.95Q65.3 27.95 66.6 27.17Q66.84 27.03 67.05 26.86Q67.85 26.26 68.37 25.47Q68.78 24.83 69.01 24.07L65.81 24.07Q65.48 24.73 64.96 25.09Q64.35 25.5 63.46 25.5Q62.72 25.5 62.14 25.2Q61.81 25.04 61.53 24.78Q61.39 24.65 61.28 24.51Q60.73 23.83 60.64 22.78L69.22 22.78ZM71.41 18.7Q70.7 20.07 70.7 21.85Q70.7 23.65 71.41 25.04Q71.97 26.13 72.85 26.84Q73.08 27.03 73.34 27.19Q73.83 27.5 74.37 27.68Q75.16 27.95 76.04 27.95Q77.35 27.95 78.35 27.41Q79.36 26.87 79.93 26.04L79.93 27.76L82.92 27.76L82.92 16.03L79.93 16.03L79.93 17.7Q79.34 16.9 78.35 16.37Q77.37 15.84 76.06 15.84Q75.06 15.84 74.19 16.17Q73.75 16.33 73.34 16.58Q73.08 16.74 72.84 16.93Q71.97 17.61 71.41 18.7ZM103.89 33.31L111.14 16.03L107.99 16.03L104.92 24.22L101.9 16.03L98.57 16.03L103.27 27.47L100.73 33.31L103.89 33.31ZM65.91 19.57Q66.22 20.09 66.23 20.79L60.66 20.79Q60.81 19.78 61.37 19.15Q61.47 19.04 61.58 18.94Q61.82 18.73 62.1 18.58Q62.68 18.27 63.43 18.27Q64.26 18.27 64.9 18.62Q65.17 18.76 65.4 18.96Q65.72 19.23 65.91 19.57ZM79.51 20.05Q79.93 20.82 79.93 21.89Q79.93 22.97 79.51 23.75Q79.21 24.29 78.77 24.65Q78.58 24.81 78.37 24.93Q78 25.14 77.61 25.25Q77.23 25.35 76.82 25.35Q76.48 25.35 76.16 25.27Q75.72 25.17 75.31 24.92Q75.18 24.84 75.06 24.75Q74.52 24.35 74.16 23.71Q73.73 22.91 73.73 21.85Q73.73 20.79 74.16 20.02Q74.53 19.37 75.08 18.98Q75.18 18.91 75.3 18.85Q75.58 18.68 75.88 18.59Q76.33 18.44 76.82 18.44Q77.23 18.44 77.61 18.54Q78 18.65 78.37 18.86Q78.57 18.98 78.75 19.12Q79.21 19.49 79.51 20.05Z" fill="#6C5FBC" fill-opacity="1.000000" fill-rule="evenodd"/>
</svg>
