<svg width="59.000000" height="45.000000" viewBox="0 0 59 45" fill="none" xmlns="http://www.w3.org/2000/svg" xmlns:xlink="http://www.w3.org/1999/xlink">
	<desc>
			Created with Pixso.
	</desc>
	<defs/>
	<path id="Path 173" d="M34.293 38.3286C32.8574 34.021 32.1387 29.4736 32.1387 24.6875C32.1387 18.4893 33.5615 13.2266 36.4072 8.89941C36.8408 8.24023 37.3066 7.60254 37.8066 6.98682C38.3701 6.29199 38.9805 5.64893 39.6367 5.05811C43.3838 1.68604 48.6475 0 55.4287 0L55.4287 9.78174C52.6338 9.78174 50.5898 10.4028 49.2959 11.645C48.002 12.8872 47.3555 15.2681 47.3555 18.7871L47.3555 20.3398L58.6895 20.3398L58.6895 44.251L36.7969 44.251C35.8037 42.3301 34.9688 40.356 34.293 38.3286ZM0 24.6875C0 31.7266 1.55273 38.2476 4.6582 44.2515L26.5508 44.2515L26.5508 20.3403L15.2158 20.3403L15.2158 18.7876C15.2158 15.2681 15.8633 12.8872 17.1572 11.645C18.4512 10.4033 20.4951 9.78223 23.29 9.78223L23.29 0C15.3193 0 9.44531 2.3291 5.66699 6.9873C5.16797 7.60303 4.70117 8.24023 4.26758 8.89941C1.42285 13.2266 0 18.4893 0 24.6875Z" clip-rule="evenodd" fill="#DADADA" fill-opacity="1.000000" fill-rule="evenodd"/>
</svg>
