<svg width="25.000000" height="26.000000" viewBox="0 0 25 26" fill="none" xmlns="http://www.w3.org/2000/svg" xmlns:xlink="http://www.w3.org/1999/xlink">
	<g opacity="0.000100"/>
	<path id="Edit Color" d="M14.99 20.68C16.7 21.62 18.2 20.48 17.87 18.51L17.29 14.95L19.76 12.44C21.14 11.04 20.57 9.21 18.66 8.92L15.24 8.4L13.71 5.18C12.86 3.38 11.01 3.36 10.15 5.17L8.62 8.4L5.19 8.92C3.29 9.21 2.71 11.04 4.1 12.44L6.57 14.95L5.99 18.51C5.66 20.48 7.16 21.62 8.87 20.68L11.93 19L14.99 20.68Z" fill="#6C5FBC" fill-opacity="1.000000" fill-rule="nonzero"/>
	<mask id="mask1_16754" mask-type="alpha" maskUnits="userSpaceOnUse" x="3.338867" y="3.828125" width="17.191406" height="17.191406">
		<path id="Edit Color" d="M14.99 20.68C16.7 21.62 18.2 20.48 17.87 18.51L17.29 14.95L19.76 12.44C21.14 11.04 20.57 9.21 18.66 8.92L15.24 8.4L13.71 5.18C12.86 3.38 11.01 3.36 10.15 5.17L8.62 8.4L5.19 8.92C3.29 9.21 2.71 11.04 4.1 12.44L6.57 14.95L5.99 18.51C5.66 20.48 7.16 21.62 8.87 20.68L11.93 19L14.99 20.68Z" fill="#FF7A28" fill-opacity="1.000000" fill-rule="nonzero"/>
	</mask>
</svg>
