<svg width="23.000000" height="23.000000" viewBox="0 0 23 23" fill="none" xmlns="http://www.w3.org/2000/svg" xmlns:xlink="http://www.w3.org/1999/xlink">
	<defs/>
	<path id="Path" d="M11.95 0.29L15.23 7.26L22.56 8.38C22.75 8.41 22.91 8.55 22.97 8.74C23.03 8.93 22.98 9.14 22.84 9.28L17.54 14.71L18.79 22.38C18.82 22.57 18.74 22.77 18.59 22.89C18.43 23.01 18.23 23.03 18.06 22.93L11.5 19.31L4.93 22.93C4.76 23.03 4.56 23.01 4.4 22.89C4.25 22.78 4.17 22.58 4.2 22.38L5.46 14.71L0.15 9.28C0.01 9.14 -0.04 8.93 0.02 8.74C0.08 8.55 0.24 8.41 0.43 8.38L7.76 7.26L11.05 0.29C11.13 0.11 11.3 0 11.5 0C11.69 0 11.86 0.11 11.95 0.29Z" fill="#F59E0B" fill-opacity="1.000000" fill-rule="evenodd"/>
</svg>