<svg width="124.000000" height="31.000000" viewBox="0 0 124 31" fill="none" xmlns="http://www.w3.org/2000/svg" xmlns:xlink="http://www.w3.org/1999/xlink">
	<desc>
			Created with Pixso.
	</desc>
	<defs/>
	<path id="Vector" d="M32.32 10.7L44.77 10.7L44.77 13.01L39.87 13.01L39.87 26.07L37.18 26.07L37.18 13.01L32.3 13.01L32.32 10.7ZM44.23 14.94L46.53 14.94L46.53 17.09L46.57 17.09C46.65 16.79 46.8 16.5 47 16.21C47.21 15.92 47.45 15.66 47.76 15.43C48.05 15.19 48.38 15 48.75 14.86C49.09 14.71 49.46 14.63 49.83 14.63C50.12 14.63 50.32 14.65 50.43 14.65C50.53 14.67 50.65 14.69 50.75 14.69L50.75 17.05C50.59 17.01 50.41 16.99 50.22 16.97C50.04 16.95 49.87 16.93 49.69 16.93C49.28 16.93 48.89 17.01 48.52 17.17C48.15 17.34 47.84 17.58 47.56 17.89C47.29 18.22 47.06 18.61 46.9 19.08C46.74 19.55 46.65 20.11 46.65 20.72L46.65 26.01L44.19 26.01L44.23 14.94ZM62.03 26.07L59.61 26.07L59.61 24.51L59.57 24.51C59.26 25.09 58.81 25.52 58.22 25.87C57.62 26.21 57.01 26.38 56.39 26.38C54.94 26.38 53.87 26.03 53.21 25.29C52.56 24.58 52.23 23.47 52.23 22.01L52.23 14.94L54.69 14.94L54.69 21.77C54.69 22.75 54.87 23.45 55.26 23.84C55.63 24.25 56.17 24.45 56.84 24.45C57.35 24.45 57.79 24.37 58.13 24.21C58.48 24.04 58.77 23.84 58.97 23.57C59.2 23.3 59.34 22.98 59.45 22.61C59.55 22.24 59.59 21.83 59.59 21.4L59.59 14.94L62.05 14.94L62.05 26.07L62.03 26.07ZM66.21 22.5C66.29 23.22 66.56 23.71 67.03 24.02C67.5 24.31 68.08 24.45 68.73 24.45C68.96 24.45 69.22 24.43 69.51 24.39C69.8 24.35 70.08 24.29 70.33 24.19C70.6 24.08 70.8 23.94 70.97 23.73C71.13 23.53 71.21 23.28 71.19 22.98C71.17 22.67 71.07 22.4 70.84 22.2C70.62 21.99 70.35 21.85 70.02 21.71C69.7 21.58 69.31 21.48 68.88 21.4C68.45 21.32 68.01 21.21 67.56 21.11C67.11 21.01 66.66 20.88 66.23 20.74C65.8 20.6 65.43 20.41 65.08 20.15C64.75 19.9 64.47 19.59 64.28 19.2C64.08 18.81 63.98 18.36 63.98 17.79C63.98 17.17 64.12 16.68 64.43 16.27C64.71 15.86 65.1 15.53 65.55 15.29C66.01 15.04 66.52 14.86 67.07 14.75C67.62 14.65 68.16 14.61 68.65 14.61C69.22 14.61 69.78 14.67 70.29 14.8C70.8 14.92 71.29 15.1 71.71 15.39C72.13 15.66 72.48 16.03 72.75 16.46C73.04 16.89 73.2 17.42 73.28 18.04L70.72 18.04C70.6 17.44 70.33 17.05 69.92 16.85C69.49 16.64 69.02 16.54 68.47 16.54C68.3 16.54 68.08 16.56 67.85 16.58C67.6 16.62 67.4 16.66 67.17 16.74C66.97 16.83 66.79 16.95 66.64 17.09C66.5 17.24 66.42 17.44 66.42 17.69C66.42 17.99 66.52 18.22 66.72 18.4C66.93 18.59 67.19 18.73 67.54 18.88C67.87 19 68.26 19.1 68.69 19.18C69.12 19.27 69.57 19.37 70.02 19.47C70.47 19.57 70.91 19.7 71.34 19.84C71.77 19.98 72.16 20.17 72.48 20.43C72.81 20.68 73.1 20.99 73.3 21.36C73.51 21.73 73.61 22.2 73.61 22.73C73.61 23.39 73.47 23.94 73.16 24.41C72.85 24.86 72.46 25.25 71.99 25.54C71.52 25.83 70.97 26.03 70.39 26.17C69.8 26.3 69.22 26.38 68.65 26.38C67.95 26.38 67.3 26.3 66.7 26.13C66.11 25.97 65.58 25.72 65.14 25.41C64.71 25.09 64.37 24.7 64.12 24.21C63.87 23.73 63.73 23.16 63.71 22.48L66.19 22.48L66.19 22.5L66.21 22.5ZM74.31 14.94L76.17 14.94L76.17 11.58L78.63 11.58L78.63 14.92L80.85 14.92L80.85 16.74L78.63 16.74L78.63 22.69C78.63 22.96 78.65 23.16 78.67 23.37C78.7 23.55 78.76 23.71 78.82 23.84C78.9 23.96 79.02 24.06 79.17 24.12C79.33 24.19 79.54 24.23 79.82 24.23C79.99 24.23 80.17 24.23 80.33 24.21C80.5 24.19 80.68 24.16 80.85 24.12L80.85 26.03C80.58 26.07 80.31 26.09 80.05 26.11C79.78 26.15 79.54 26.15 79.25 26.15C78.59 26.15 78.08 26.09 77.69 25.97C77.3 25.85 76.99 25.66 76.77 25.44C76.54 25.19 76.4 24.9 76.32 24.55C76.24 24.21 76.19 23.78 76.17 23.32L76.17 16.76L74.31 16.76L74.31 14.9L74.31 14.94ZM82.57 14.94L84.89 14.94L84.89 16.46L84.93 16.46C85.28 15.8 85.75 15.35 86.36 15.06C86.98 14.78 87.63 14.63 88.37 14.63C89.25 14.63 90.01 14.78 90.67 15.1C91.32 15.41 91.86 15.82 92.29 16.37C92.72 16.91 93.04 17.54 93.25 18.26C93.46 18.98 93.58 19.76 93.58 20.56C93.58 21.32 93.48 22.03 93.29 22.73C93.09 23.43 92.8 24.06 92.41 24.6C92.02 25.13 91.53 25.56 90.91 25.89C90.3 26.21 89.6 26.38 88.78 26.38C88.43 26.38 88.06 26.34 87.71 26.28C87.37 26.21 87.02 26.11 86.69 25.97C86.36 25.83 86.05 25.64 85.79 25.41C85.5 25.19 85.28 24.92 85.09 24.64L85.05 24.64L85.05 30.19L82.59 30.19L82.59 14.94L82.57 14.94ZM91.16 20.52C91.16 20.02 91.1 19.53 90.95 19.06C90.83 18.59 90.63 18.18 90.36 17.81C90.09 17.44 89.77 17.15 89.4 16.93C89.01 16.7 88.56 16.6 88.06 16.6C87.04 16.6 86.26 16.95 85.73 17.67C85.21 18.38 84.95 19.35 84.95 20.54C84.95 21.11 85.01 21.62 85.15 22.09C85.3 22.57 85.48 22.98 85.77 23.32C86.03 23.67 86.36 23.94 86.75 24.14C87.14 24.35 87.57 24.45 88.08 24.45C88.66 24.45 89.11 24.33 89.5 24.1C89.89 23.88 90.2 23.57 90.46 23.22C90.71 22.85 90.89 22.44 91 21.97C91.1 21.48 91.16 21.01 91.16 20.52ZM95.48 10.7L97.94 10.7L97.94 13.01L95.48 13.01L95.48 10.7ZM95.48 14.94L97.94 14.94L97.94 26.07L95.48 26.07L95.48 14.94ZM100.14 10.7L102.6 10.7L102.6 26.07L100.14 26.07L100.14 10.7ZM110.1 26.38C109.22 26.38 108.42 26.24 107.72 25.93C107.03 25.62 106.45 25.23 105.96 24.72C105.49 24.21 105.12 23.57 104.87 22.85C104.63 22.14 104.48 21.34 104.48 20.5C104.48 19.65 104.61 18.88 104.87 18.16C105.12 17.44 105.49 16.83 105.96 16.29C106.43 15.78 107.03 15.37 107.72 15.08C108.42 14.8 109.22 14.63 110.1 14.63C110.98 14.63 111.78 14.78 112.48 15.08C113.18 15.37 113.75 15.78 114.24 16.29C114.71 16.81 115.08 17.44 115.33 18.16C115.57 18.88 115.72 19.65 115.72 20.5C115.72 21.36 115.6 22.14 115.33 22.85C115.06 23.57 114.71 24.19 114.24 24.72C113.77 25.23 113.18 25.64 112.48 25.93C111.78 26.21 111 26.38 110.1 26.38ZM110.1 24.43C110.63 24.43 111.13 24.31 111.52 24.08C111.93 23.86 112.23 23.55 112.5 23.18C112.77 22.81 112.95 22.38 113.07 21.93C113.2 21.46 113.26 20.99 113.26 20.5C113.26 20.02 113.2 19.55 113.07 19.08C112.95 18.61 112.77 18.2 112.5 17.83C112.23 17.46 111.91 17.17 111.52 16.95C111.11 16.72 110.63 16.6 110.1 16.6C109.57 16.6 109.08 16.72 108.69 16.95C108.28 17.17 107.97 17.48 107.7 17.83C107.44 18.2 107.25 18.61 107.13 19.08C107.01 19.55 106.94 20.02 106.94 20.5C106.94 20.99 107.01 21.46 107.13 21.93C107.25 22.4 107.44 22.81 107.7 23.18C107.97 23.55 108.3 23.86 108.69 24.08C109.1 24.33 109.57 24.43 110.1 24.43ZM116.46 14.94L118.32 14.94L118.32 11.58L120.78 11.58L120.78 14.92L123 14.92L123 16.74L120.78 16.74L120.78 22.69C120.78 22.96 120.8 23.16 120.82 23.37C120.84 23.55 120.9 23.71 120.97 23.84C121.05 23.96 121.17 24.06 121.31 24.12C121.48 24.19 121.68 24.23 121.97 24.23C122.14 24.23 122.32 24.23 122.48 24.21C122.65 24.19 122.83 24.16 123 24.12L123 26.03C122.73 26.07 122.46 26.09 122.2 26.11C121.93 26.15 121.68 26.15 121.4 26.15C120.74 26.15 120.23 26.09 119.84 25.97C119.45 25.85 119.14 25.66 118.92 25.44C118.69 25.19 118.55 24.9 118.47 24.55C118.38 24.21 118.34 23.78 118.32 23.32L118.32 16.76L116.46 16.76L116.46 14.9L116.46 14.94Z" fill="#000000" fill-opacity="1.000000" fill-rule="nonzero"/>
	<path id="Vector" d="M29.45 10.7L18.2 10.7L14.73 0L11.25 10.7L0 10.68L9.1 17.3L5.61 28L14.71 21.38L23.82 28L20.35 17.3L29.45 10.7Z" fill="#00B67A" fill-opacity="1.000000" fill-rule="nonzero"/>
	<path id="Vector" d="M21.13 19.72L20.35 17.3L14.74 21.38L21.13 19.72Z" fill="#005128" fill-opacity="1.000000" fill-rule="nonzero"/>
</svg>
