<svg width="21.000000" height="22.000000" viewBox="0 0 21 22" fill="none" xmlns="http://www.w3.org/2000/svg" xmlns:xlink="http://www.w3.org/1999/xlink">
	<desc>
			Created with Pixso.
	</desc>
	<defs/>
	<path id="Icon" d="M9.74 -0.73C6.62 -0.73 4.1 1.79 4.1 4.91C4.1 8.02 6.62 10.55 9.74 10.55C12.85 10.55 15.38 8.02 15.38 4.91C15.38 1.79 12.85 -0.73 9.74 -0.73ZM6.09 4.91C6.09 2.89 7.72 1.26 9.74 1.26C11.75 1.26 13.39 2.89 13.39 4.91C13.39 6.92 11.75 8.56 9.74 8.56C7.72 8.56 6.09 6.92 6.09 4.91ZM4.43 12.54C1.68 12.54 -0.55 14.76 -0.55 17.51L-0.55 19.09C-0.55 20.09 0.18 20.94 1.16 21.1C6.84 22.03 12.63 22.03 18.31 21.1C19.3 20.94 20.02 20.09 20.02 19.09L20.02 17.51C20.02 14.76 17.79 12.54 15.05 12.54L14.59 12.54C14.35 12.54 14.1 12.58 13.87 12.65L12.72 13.03C10.78 13.66 8.69 13.66 6.75 13.03L5.6 12.65C5.37 12.58 5.13 12.54 4.88 12.54L4.43 12.54ZM1.44 17.51C1.44 15.86 2.78 14.53 4.43 14.53L4.88 14.53C4.92 14.53 4.95 14.53 4.99 14.54L6.13 14.92C8.48 15.68 11 15.68 13.34 14.92L14.49 14.54C14.52 14.53 14.56 14.53 14.59 14.53L15.05 14.53C16.69 14.53 18.03 15.86 18.03 17.51L18.03 19.09C18.03 19.11 18.01 19.13 17.99 19.14C12.52 20.03 6.95 20.03 1.49 19.14C1.46 19.13 1.44 19.11 1.44 19.09L1.44 17.51Z" fill="#C2C3CB" fill-opacity="1.000000" fill-rule="evenodd"/>
</svg>
