<svg width="25.000000" height="25.000000" viewBox="0 0 25 25" fill="none" xmlns="http://www.w3.org/2000/svg" xmlns:xlink="http://www.w3.org/1999/xlink">
	<desc>
			Created with Pixso.
	</desc>
	<defs/>
	<path id="Vector" d="M12.32 1.84L9.28 8.89L6.3 8.89C5.58 8.89 4.9 9.04 4.29 9.3L6.12 4.92L6.16 4.82L6.23 4.65C6.25 4.59 6.27 4.52 6.31 4.47C7.68 1.3 9.23 0.58 12.35 1.77L12.32 1.84Z" stroke="#1A202C" stroke-opacity="1.000000" stroke-width="1.570588" stroke-linejoin="round"/>
	<path id="Vector" d="M16.51 8.89L9.28 8.89L12.31 1.84L12.35 1.77C12.5 1.82 12.65 1.89 12.81 1.96L15.12 2.93C16.41 3.47 17.31 4.02 17.85 4.69C17.96 4.82 18.04 4.93 18.12 5.07C18.21 5.21 18.28 5.36 18.33 5.52C18.37 5.61 18.4 5.71 18.42 5.79C18.7 6.67 18.53 7.75 17.99 9.1C17.52 8.95 17.02 8.89 16.51 8.89Z" stroke="#1A202C" stroke-opacity="1.000000" stroke-width="1.570588" stroke-linejoin="round"/>
	<path id="Vector" d="M21.62 16.04C21.62 16.25 21.62 16.46 21.6 16.67C21.41 20.32 19.36 22.17 15.49 22.17L7.32 22.17C7.07 22.17 6.82 22.15 6.58 22.11C3.25 21.89 1.47 20.11 1.25 16.79C1.22 16.54 1.2 16.29 1.2 16.04L1.2 14C1.2 11.89 2.47 10.08 4.3 9.3C4.92 9.04 5.59 8.89 6.31 8.89L16.53 8.89C17.04 8.89 17.54 8.96 18 9.1C20.09 9.74 21.62 11.69 21.62 14L21.62 16.04Z" stroke="#1A202C" stroke-opacity="1.000000" stroke-width="1.570588" stroke-linejoin="round"/>
	<path id="Vector" d="M4.28 9.3C2.46 10.08 1.18 11.9 1.18 14L1.18 10.93C1.18 7.96 3.3 5.48 6.12 4.92L4.28 9.3Z" stroke="#1A202C" stroke-opacity="1.000000" stroke-width="1.570588" stroke-linejoin="round"/>
	<path id="Vector" d="M21.62 14C21.62 11.7 20.09 9.74 18 9.11C18.54 7.75 18.7 6.68 18.44 5.79C18.42 5.7 18.39 5.6 18.35 5.52C20.29 6.52 21.62 8.59 21.62 10.93L21.62 14Z" stroke="#1A202C" stroke-opacity="1.000000" stroke-width="1.570588" stroke-linejoin="round"/>
	<g opacity="0.000000"/>
</svg>
