<svg width="26.000000" height="30.000000" viewBox="0 0 26 30" fill="none" xmlns="http://www.w3.org/2000/svg" xmlns:xlink="http://www.w3.org/1999/xlink">
	<desc>
			Created with Pixso.
	</desc>
	<defs>
		<clipPath id="clip1_11797">
			<rect id="Apple_logo_black 1" width="25.570200" height="30.017193" transform="translate(-0.503906 -0.160156)" fill="white" fill-opacity="0"/>
		</clipPath>
	</defs>
	<rect id="Apple_logo_black 1" width="25.570200" height="30.017193" transform="translate(-0.503906 -0.160156)" fill="#FFFFFF" fill-opacity="0"/>
	<g clip-path="url(#clip1_11797)">
		<path id="path4" d="M24.53 23.23C24.07 24.28 23.52 25.24 22.89 26.13C22.04 27.34 21.33 28.18 20.79 28.64C19.95 29.41 19.05 29.8 18.09 29.82C17.4 29.82 16.56 29.62 15.59 29.23C14.62 28.84 13.72 28.64 12.91 28.64C12.05 28.64 11.13 28.84 10.14 29.23C9.16 29.62 8.36 29.83 7.76 29.85C6.83 29.89 5.91 29.49 4.99 28.64C4.41 28.14 3.67 27.27 2.79 26.04C1.85 24.73 1.08 23.21 0.47 21.47C-0.18 19.6 -0.51 17.79 -0.51 16.03C-0.51 14.02 -0.07 12.28 0.81 10.83C1.5 9.66 2.42 8.74 3.58 8.06C4.73 7.39 5.97 7.04 7.31 7.02C8.05 7.02 9.01 7.25 10.21 7.69C11.4 8.13 12.16 8.35 12.5 8.35C12.75 8.35 13.6 8.09 15.04 7.57C16.4 7.08 17.55 6.88 18.5 6.96C21.05 7.16 22.97 8.16 24.25 9.95C21.96 11.32 20.83 13.24 20.85 15.7C20.88 17.61 21.58 19.21 22.96 20.47C23.58 21.06 24.28 21.51 25.06 21.84C24.89 22.32 24.71 22.78 24.53 23.23ZM18.67 0.44C18.67 1.94 18.11 3.34 17.01 4.64C15.67 6.18 14.06 7.07 12.31 6.93C12.29 6.75 12.27 6.56 12.27 6.36C12.27 4.92 12.91 3.38 14.04 2.12C14.6 1.48 15.31 0.95 16.18 0.52C17.05 0.11 17.87 -0.13 18.64 -0.16C18.66 0.04 18.67 0.24 18.67 0.44L18.67 0.44Z" fill="#323142" fill-opacity="1.000000" fill-rule="nonzero"/>
	</g>
</svg>
