<svg width="10.000000" height="21.000000" viewBox="0 0 10 21" fill="none" xmlns="http://www.w3.org/2000/svg" xmlns:xlink="http://www.w3.org/1999/xlink">
	<desc>
			Created with Pixso.
	</desc>
	<defs/>
	<mask id="mask_1_15855" fill="white">
		<path id="Path 13" d="M8.95215 9.66943L5.97168 9.66943L5.97168 20.3379L1.52637 20.3379L1.52637 9.66943L-0.56543 9.66943L-0.56543 5.9043L1.52637 5.9043L1.52637 3.44629C1.52637 1.72021 2.36328 -0.999023 5.97168 -0.999023L9.2666 -0.999023L9.2666 2.66162L6.91309 2.66162C6.54688 2.66162 5.97168 2.87109 5.97168 3.70752L5.97168 5.9043L9.31836 5.9043L8.95215 9.66943Z" clip-rule="evenodd" fill="" fill-opacity="1.000000" fill-rule="evenodd"/>
	</mask>
	<path id="Path 13" d="M8.95215 9.66943L5.97168 9.66943L5.97168 20.3379L1.52637 20.3379L1.52637 9.66943L-0.56543 9.66943L-0.56543 5.9043L1.52637 5.9043L1.52637 3.44629C1.52637 1.72021 2.36328 -0.999023 5.97168 -0.999023L9.2666 -0.999023L9.2666 2.66162L6.91309 2.66162C6.54688 2.66162 5.97168 2.87109 5.97168 3.70752L5.97168 5.9043L9.31836 5.9043L8.95215 9.66943Z" clip-rule="evenodd" fill="#081420" fill-opacity="1.000000" fill-rule="evenodd" mask="url(#mask_1_15855)"/>
	<path id="Path 13" d="" fill="#707070" fill-opacity="1.000000" fill-rule="nonzero"/>
</svg>
