<svg width="22.000000" height="22.000000" viewBox="0 0 22 22" fill="none" xmlns="http://www.w3.org/2000/svg" xmlns:xlink="http://www.w3.org/1999/xlink">
	<desc>
			Created with Pixso.
	</desc>
	<defs/>
	<path id="G" d="M14.46 4.6Q15.16 5.21 15.64 6.08L20.65 6.08Q20.04 4.14 18.82 2.72Q18 1.78 16.92 1.06Q16.52 0.8 16.1 0.57Q13.67 -0.73 10.54 -0.73Q8.16 -0.73 6.11 0.1Q5.48 0.35 4.88 0.69Q3.67 1.36 2.71 2.29Q1.65 3.31 0.89 4.64Q0.66 5.05 0.47 5.48Q-0.55 7.69 -0.55 10.38Q-0.55 13.13 0.52 15.38Q0.69 15.75 0.89 16.11Q1.62 17.37 2.63 18.36Q3.62 19.34 4.88 20.05Q5.37 20.32 5.88 20.54Q8.03 21.47 10.57 21.47Q13.11 21.47 15.21 20.5Q15.42 20.4 15.62 20.29Q17.37 19.39 18.63 18.02Q18.99 17.63 19.31 17.19Q20.31 15.85 20.82 14.35Q21.05 13.68 21.18 12.99L21.18 9.2L9.41 9.2L9.41 12.53L16.88 12.53Q16.47 14.52 15.28 15.77Q15.05 16 14.8 16.21Q14.61 16.37 14.4 16.52Q12.91 17.54 10.72 17.54Q8.7 17.54 7.17 16.67Q6.61 16.35 6.13 15.92Q5.33 15.2 4.79 14.18Q3.93 12.56 3.93 10.38Q3.93 8.26 4.77 6.65Q5.34 5.56 6.2 4.81Q6.62 4.45 7.11 4.16Q7.29 4.05 7.48 3.96Q8.84 3.29 10.54 3.29Q12.28 3.29 13.59 4Q14.06 4.26 14.46 4.6Z" fill="#323142" fill-opacity="1.000000" fill-rule="evenodd"/>
</svg>
