<svg width="21.000000" height="22.000000" viewBox="0 0 21 22" fill="none" xmlns="http://www.w3.org/2000/svg" xmlns:xlink="http://www.w3.org/1999/xlink">
	<desc>
			Created with Pixso.
	</desc>
	<defs/>
	<mask id="mask_1_15859" fill="white">
		<path id="Path 8" d="M9.77246 0C11.1914 0.0507812 12.6621 0.0507812 14.0811 0.101562C15.3486 0.151855 16.5146 0.35498 17.6299 1.01367C19.0498 1.87549 19.9111 3.14307 20.2158 4.76514C20.3672 5.72852 20.418 6.74219 20.4688 7.70557C20.5029 9.125 20.4912 10.5444 20.4805 11.9639L20.4805 11.9639C20.4746 12.6738 20.4688 13.3833 20.4688 14.0933C20.4688 15.2085 20.418 16.3237 20.0635 17.3882C19.3535 19.4668 17.8838 20.7344 15.7539 21.1396C14.791 21.3428 13.7773 21.3428 12.8135 21.3931C11.3965 21.4272 10.001 21.416 8.59863 21.4048C7.89453 21.3989 7.18848 21.3931 6.47656 21.3931C5.36133 21.3931 4.24609 21.3428 3.18164 20.9878C1.10352 20.2778 -0.164062 18.8076 -0.569336 16.6787C-0.772461 15.7153 -0.772461 14.7017 -0.823242 13.7383C-0.857422 12.3188 -0.845703 10.8994 -0.833984 9.47998C-0.829102 8.77002 -0.823242 8.06055 -0.823242 7.35059C-0.823242 6.23535 -0.772461 5.12012 -0.417969 4.05566C0.291992 1.97705 1.7627 0.709961 3.8916 0.304199C4.85449 0.101562 5.86816 0.101562 6.83203 0.0507812C7.79492 0 8.75781 0 9.77246 0ZM18.4922 7.95898C18.4922 8.8208 18.4922 9.63232 18.543 10.4941C18.4922 12.167 18.4922 13.7891 18.3906 15.3101C18.3398 16.5264 17.9854 17.5913 16.9707 18.4023C16.3623 18.9092 15.6533 19.1626 14.8926 19.2134C14.0811 19.3149 13.2705 19.3657 12.459 19.3657C11.8467 19.3657 11.2402 19.3711 10.6377 19.377C9.44336 19.3882 8.26465 19.3994 7.08496 19.3657C6.12207 19.3657 5.15918 19.3149 4.24609 19.1626C2.42188 18.8584 1.30664 17.5913 1.1543 15.7661C1.05273 14.5493 1.00195 13.2822 1.00195 12.0654C1.00195 10.1392 1.00195 8.2124 1.05273 6.28613C1.10352 5.7793 1.1543 5.27246 1.30664 4.76514C1.7627 3.24463 2.82715 2.38281 4.34766 2.12939C5.20996 1.97705 6.12207 1.92627 7.03516 1.92627C8.85938 1.87598 10.6338 1.87598 12.459 1.92627C13.3721 1.92627 14.3857 1.92627 15.2979 2.12939C17.0723 2.48389 18.1367 3.70068 18.3398 5.52588C18.4414 6.33691 18.4922 7.14795 18.4922 7.95898Z" clip-rule="evenodd" fill="" fill-opacity="1.000000" fill-rule="evenodd"/>
	</mask>
	<path id="Path 8" d="M9.77246 0C11.1914 0.0507812 12.6621 0.0507812 14.0811 0.101562C15.3486 0.151855 16.5146 0.35498 17.6299 1.01367C19.0498 1.87549 19.9111 3.14307 20.2158 4.76514C20.3672 5.72852 20.418 6.74219 20.4688 7.70557C20.5029 9.125 20.4912 10.5444 20.4805 11.9639L20.4805 11.9639C20.4746 12.6738 20.4688 13.3833 20.4688 14.0933C20.4688 15.2085 20.418 16.3237 20.0635 17.3882C19.3535 19.4668 17.8838 20.7344 15.7539 21.1396C14.791 21.3428 13.7773 21.3428 12.8135 21.3931C11.3965 21.4272 10.001 21.416 8.59863 21.4048C7.89453 21.3989 7.18848 21.3931 6.47656 21.3931C5.36133 21.3931 4.24609 21.3428 3.18164 20.9878C1.10352 20.2778 -0.164062 18.8076 -0.569336 16.6787C-0.772461 15.7153 -0.772461 14.7017 -0.823242 13.7383C-0.857422 12.3188 -0.845703 10.8994 -0.833984 9.47998C-0.829102 8.77002 -0.823242 8.06055 -0.823242 7.35059C-0.823242 6.23535 -0.772461 5.12012 -0.417969 4.05566C0.291992 1.97705 1.7627 0.709961 3.8916 0.304199C4.85449 0.101562 5.86816 0.101562 6.83203 0.0507812C7.79492 0 8.75781 0 9.77246 0ZM18.4922 7.95898C18.4922 8.8208 18.4922 9.63232 18.543 10.4941C18.4922 12.167 18.4922 13.7891 18.3906 15.3101C18.3398 16.5264 17.9854 17.5913 16.9707 18.4023C16.3623 18.9092 15.6533 19.1626 14.8926 19.2134C14.0811 19.3149 13.2705 19.3657 12.459 19.3657C11.8467 19.3657 11.2402 19.3711 10.6377 19.377C9.44336 19.3882 8.26465 19.3994 7.08496 19.3657C6.12207 19.3657 5.15918 19.3149 4.24609 19.1626C2.42188 18.8584 1.30664 17.5913 1.1543 15.7661C1.05273 14.5493 1.00195 13.2822 1.00195 12.0654C1.00195 10.1392 1.00195 8.2124 1.05273 6.28613C1.10352 5.7793 1.1543 5.27246 1.30664 4.76514C1.7627 3.24463 2.82715 2.38281 4.34766 2.12939C5.20996 1.97705 6.12207 1.92627 7.03516 1.92627C8.85938 1.87598 10.6338 1.87598 12.459 1.92627C13.3721 1.92627 14.3857 1.92627 15.2979 2.12939C17.0723 2.48389 18.1367 3.70068 18.3398 5.52588C18.4414 6.33691 18.4922 7.14795 18.4922 7.95898Z" clip-rule="evenodd" fill="#081420" fill-opacity="1.000000" fill-rule="evenodd" mask="url(#mask_1_15859)"/>
	<path id="Path 8" d="" fill="#707070" fill-opacity="0.000000" fill-rule="nonzero"/>
	<mask id="mask_1_15862" fill="white">
		<path id="Path 9" d="M9.77148 16.1714C12.8135 16.1714 15.2471 13.7378 15.2471 10.6963C15.2471 7.6543 12.8135 5.22119 9.82227 5.22119C6.78125 5.22119 4.29688 7.6543 4.29688 10.6455C4.29688 13.7378 6.73047 16.1714 9.77148 16.1714ZM13.3203 10.6963C13.3203 12.6226 11.6982 14.2446 9.77148 14.2446C7.79492 14.2446 6.17285 12.6226 6.22363 10.6963C6.22363 8.76953 7.79492 7.14746 9.77148 7.14746C11.6982 7.14746 13.3203 8.76953 13.3203 10.6963Z" clip-rule="evenodd" fill="" fill-opacity="1.000000" fill-rule="evenodd"/>
	</mask>
	<path id="Path 9" d="M9.77148 16.1714C12.8135 16.1714 15.2471 13.7378 15.2471 10.6963C15.2471 7.6543 12.8135 5.22119 9.82227 5.22119C6.78125 5.22119 4.29688 7.6543 4.29688 10.6455C4.29688 13.7378 6.73047 16.1714 9.77148 16.1714ZM13.3203 10.6963C13.3203 12.6226 11.6982 14.2446 9.77148 14.2446C7.79492 14.2446 6.17285 12.6226 6.22363 10.6963C6.22363 8.76953 7.79492 7.14746 9.77148 7.14746C11.6982 7.14746 13.3203 8.76953 13.3203 10.6963Z" clip-rule="evenodd" fill="#081420" fill-opacity="1.000000" fill-rule="evenodd" mask="url(#mask_1_15862)"/>
	<path id="Path 9" d="" fill="#707070" fill-opacity="0.000000" fill-rule="nonzero"/>
	<path id="Path 10" d="M16.71 4.96C16.71 5.67 16.16 6.28 15.45 6.28C14.74 6.28 14.13 5.67 14.18 4.96C14.18 4.25 14.74 3.7 15.45 3.7C16.16 3.7 16.71 4.25 16.71 4.96Z" fill="#081420" fill-opacity="1.000000" fill-rule="nonzero"/>
	<path id="Path 10" d="M15.45 6.28C14.74 6.28 14.13 5.67 14.18 4.96C14.18 4.25 14.74 3.7 15.45 3.7C16.16 3.7 16.71 4.25 16.71 4.96C16.71 5.67 16.16 6.28 15.45 6.28Z" stroke="#707070" stroke-opacity="0" stroke-width="0.000000"/>
</svg>
