<svg width="21.000000" height="20.000000" viewBox="0 0 21 20" fill="none" xmlns="http://www.w3.org/2000/svg" xmlns:xlink="http://www.w3.org/1999/xlink">
	<path id="Path 7" d="M-0.705078 1.35889C-0.705078 0.0361328 0.330078 -0.999023 1.88281 -0.999023C3.43555 -0.999023 4.41309 0.0361328 4.4707 1.35889C4.4707 2.68164 3.49316 3.7168 1.88281 3.7168L1.8252 3.7168C0.272461 3.7168 -0.705078 2.68164 -0.705078 1.35889ZM20.6328 11.481L20.6328 19.3604L16.0312 19.3604L16.0312 11.9985C16.0312 10.1582 15.3984 8.89307 13.7314 8.89307C12.4658 8.89307 11.7178 9.75586 11.373 10.561C11.2578 10.8486 11.2002 11.251 11.2002 11.6538L11.2002 19.3604L6.59961 19.3604C6.59961 19.3604 6.65723 6.87988 6.59961 5.61475L11.2002 5.61475L11.2002 7.57031C11.2002 7.57031 11.2002 7.62793 11.1426 7.62793L11.2002 7.62793L11.2002 7.57031C11.833 6.6499 12.8682 5.27002 15.3418 5.27002C18.332 5.27002 20.6328 7.28271 20.6328 11.481ZM-0.474609 19.3604L4.06934 19.3604L4.06934 5.61475L-0.474609 5.61475L-0.474609 19.3604Z" clip-rule="evenodd" fill="#081420" fill-opacity="1.000000" fill-rule="evenodd" mask="url(#mask_1_15866)"/>
	<path id="Path 7" d="" fill="#707070" fill-opacity="0.000000" fill-rule="nonzero"/>
</svg>
