<svg width="21.000000" height="18.000000" viewBox="0 0 21 18" fill="none" xmlns="http://www.w3.org/2000/svg" xmlns:xlink="http://www.w3.org/1999/xlink">
	<desc>
			Created with Pixso.
	</desc>
	<defs/>
	<mask id="mask_1_15871" fill="white">
		<path id="Path 6" d="M20.6152 1.82617C19.8125 2.17725 19.0088 2.42822 18.1055 2.52881C19.0088 1.97656 19.7119 1.12305 20.0127 0.119141C19.1592 0.621094 18.2061 0.972656 17.252 1.17334C16.4482 0.319824 15.2939 -0.232422 14.0381 -0.232422C11.6289 -0.232422 9.6709 1.72559 9.6709 4.13525C9.6709 4.48682 9.7207 4.83838 9.77148 5.13965C6.10645 4.93848 2.89355 3.23145 0.734375 0.570801C0.333008 1.22363 0.131836 1.97656 0.131836 2.77979C0.131836 4.28613 0.884766 5.6416 2.08984 6.44482C1.38672 6.44482 0.683594 6.24414 0.0820312 5.89258L0.0820312 5.94287C0.0820312 8.05127 1.58789 9.85889 3.5957 10.2603C3.24414 10.3608 2.84277 10.4111 2.44141 10.4111C2.13965 10.4111 1.88867 10.3608 1.6377 10.3105C2.19043 12.0679 3.79688 13.3228 5.75488 13.373C4.24902 14.5278 2.39062 15.2305 0.333008 15.2305C-0.0185547 15.2305 -0.370117 15.2305 -0.72168 15.1802C1.23633 16.4355 3.49512 17.1382 6.00586 17.1382C14.0889 17.1382 18.457 10.4609 18.457 4.6875L18.457 4.13525C19.3105 3.48291 20.0635 2.6792 20.6152 1.82617Z" clip-rule="evenodd" fill="" fill-opacity="1.000000" fill-rule="evenodd"/>
	</mask>
	<path id="Path 6" d="M20.6152 1.82617C19.8125 2.17725 19.0088 2.42822 18.1055 2.52881C19.0088 1.97656 19.7119 1.12305 20.0127 0.119141C19.1592 0.621094 18.2061 0.972656 17.252 1.17334C16.4482 0.319824 15.2939 -0.232422 14.0381 -0.232422C11.6289 -0.232422 9.6709 1.72559 9.6709 4.13525C9.6709 4.48682 9.7207 4.83838 9.77148 5.13965C6.10645 4.93848 2.89355 3.23145 0.734375 0.570801C0.333008 1.22363 0.131836 1.97656 0.131836 2.77979C0.131836 4.28613 0.884766 5.6416 2.08984 6.44482C1.38672 6.44482 0.683594 6.24414 0.0820312 5.89258L0.0820312 5.94287C0.0820312 8.05127 1.58789 9.85889 3.5957 10.2603C3.24414 10.3608 2.84277 10.4111 2.44141 10.4111C2.13965 10.4111 1.88867 10.3608 1.6377 10.3105C2.19043 12.0679 3.79688 13.3228 5.75488 13.373C4.24902 14.5278 2.39062 15.2305 0.333008 15.2305C-0.0185547 15.2305 -0.370117 15.2305 -0.72168 15.1802C1.23633 16.4355 3.49512 17.1382 6.00586 17.1382C14.0889 17.1382 18.457 10.4609 18.457 4.6875L18.457 4.13525C19.3105 3.48291 20.0635 2.6792 20.6152 1.82617Z" clip-rule="evenodd" fill="#6C5FBC" fill-opacity="1.000000" fill-rule="evenodd" mask="url(#mask_1_15871)"/>
	<path id="Path 6" d="" fill="#707070" fill-opacity="1.000000" fill-rule="nonzero"/>
</svg>
