<svg width="101.000000" height="98.000000" viewBox="0 0 101 98" fill="none" xmlns="http://www.w3.org/2000/svg" xmlns:xlink="http://www.w3.org/1999/xlink">
	<desc>
			Created with Pixso.
	</desc>
	<defs/>
	<path id="Vector" d="M20.71 81.1C20.56 81.1 28.61 99.65 47.31 89.95C63.1 81.75 67.75 63.62 60.57 50.16C57.5 44.41 46.17 36.91 41.06 45.37C36.48 52.97 41.06 63.19 48.11 68.26C63.01 78.96 75.98 70.41 80.74 55.99C86.01 40.01 80.8 24.38 71.66 10.71" stroke="#665AB5" stroke-opacity="1.000000" stroke-width="2.650000" stroke-linejoin="round" stroke-linecap="round"/>
	<path id="Vector" d="M66.92 25.29C71.68 20.24 71.02 11.84 68.78 5.89C72.66 10.53 79.06 13.34 85.31 14.3C87.21 14.59 89.1 14.97 91.02 14.59" stroke="#665AB5" stroke-opacity="1.000000" stroke-width="2.650000" stroke-linejoin="round" stroke-linecap="round"/>
</svg>
