<svg width="169.000000" height="60.000000" viewBox="0 0 169 60" fill="none" xmlns="http://www.w3.org/2000/svg" xmlns:xlink="http://www.w3.org/1999/xlink">
	<desc>
			Created with Pixso.
	</desc>
	<defs/>
	<path id="Vector 14" d="M167.25 4.73C167.25 4.73 157.91 33.39 134.21 37.13C115.94 40.02 95.05 30.43 94.93 15.23C94.89 10.6 98.66 1.56 106.69 1C114.22 0.48 117.62 7.05 119.18 11.38C125.71 29.45 104.96 44.46 85.86 46.57C69.44 48.38 51.03 40.49 50.08 24C49.78 18.65 52.66 14.54 58.6 13.03C64.38 11.56 68.31 15.41 70.84 20.82C79.74 39.84 51.47 59.75 32.82 58.26C18.18 57.1 1.37 38.71 1.37 38.71M5.61 50.82L1.37 38.71L13.27 41.49" stroke="#6C5FBC" stroke-opacity="1.000000" stroke-width="2.650000"/>
</svg>
