<svg width="208.000000" height="181.000000" viewBox="0 0 208 181" fill="none" xmlns="http://www.w3.org/2000/svg" xmlns:xlink="http://www.w3.org/1999/xlink">
	<desc>
			Created with Pixso.
	</desc>
	<defs>
		<clipPath id="clip1_16865">
			<rect id="Component 8" rx="9.133087" width="37.919411" height="18.266174" transform="translate(25.873047 -0.722656)" fill="white" fill-opacity="0"/>
		</clipPath>
		<clipPath id="clip1_16867">
			<rect id="Component 8" rx="6.393162" width="34.705734" height="12.786324" transform="translate(71.099609 2.017578)" fill="white" fill-opacity="0"/>
		</clipPath>
		<clipPath id="clip1_16869">
			<rect id="Badge / 3" rx="6.393162" width="34.249081" height="12.786324" transform="translate(113.111328 2.017578)" fill="white" fill-opacity="0"/>
		</clipPath>
		<clipPath id="clip1_16871">
			<rect id="Badge / 4" rx="6.393162" width="30.595846" height="12.786324" transform="translate(154.666992 2.017578)" fill="white" fill-opacity="0"/>
		</clipPath>
		<clipPath id="clip1_16864">
			<rect id="Time" rx="9.133087" width="159.389481" height="18.266174" transform="translate(25.873047 -0.722656)" fill="white" fill-opacity="0"/>
		</clipPath>
	</defs>
	<path id="1D" d="M82.87 170.15L82.24 170.15L82.24 167.15L81.63 167.15L79.61 170.28L79.61 170.61L81.66 170.61L81.66 171.66L82.24 171.66L82.24 170.61L82.87 170.61L82.87 170.15ZM83.53 167.15L83.53 171.66L84.78 171.66Q85.39 171.66 85.85 171.4Q86.04 171.29 86.19 171.15Q86.41 170.94 86.55 170.66Q86.8 170.18 86.8 169.54L86.8 169.25Q86.8 168.63 86.55 168.15Q86.4 167.86 86.18 167.65Q86.03 167.51 85.85 167.41Q85.82 167.39 85.79 167.37Q85.36 167.15 84.81 167.15L83.53 167.15ZM84.13 171.17L84.13 167.64L84.82 167.64Q85.32 167.64 85.64 167.87Q85.76 167.96 85.85 168.07Q86.21 168.5 86.21 169.26L86.21 169.53Q86.21 170.32 85.83 170.75Q85.74 170.85 85.63 170.93Q85.28 171.17 84.76 171.17L84.13 171.17ZM81.66 170.15L80.26 170.15L81.6 168.05L81.66 167.93L81.66 170.15Z" fill="#828282" fill-opacity="1.000000" fill-rule="evenodd"/>
	<path id="1D" d="M114.28 167.83L114.05 170.08L114.51 170.2L114.66 170.07Q114.88 169.91 115.25 169.91Q115.52 169.91 115.72 170.03Q115.82 170.09 115.91 170.18Q115.94 170.22 115.97 170.26Q116.16 170.52 116.16 170.91Q116.16 171.39 115.93 171.66Q115.85 171.76 115.75 171.82Q115.56 171.94 115.3 171.94Q114.98 171.94 114.77 171.78Q114.74 171.76 114.71 171.74Q114.71 171.74 114.71 171.74Q114.49 171.54 114.43 171.16L113.89 171.16Q113.93 171.61 114.17 171.91Q114.24 172 114.32 172.07Q114.39 172.13 114.46 172.18Q114.8 172.41 115.3 172.41Q115.85 172.41 116.2 172.14Q116.28 172.08 116.35 172Q116.39 171.96 116.42 171.92Q116.73 171.53 116.73 170.9Q116.73 170.26 116.41 169.86Q116.39 169.83 116.37 169.8Q116.25 169.67 116.11 169.58Q115.81 169.39 115.39 169.39Q115.04 169.39 114.76 169.53Q114.69 169.55 114.63 169.59L114.77 168.36L116.6 168.36L116.6 167.83L114.28 167.83ZM117.5 167.83L117.5 172.34L118.75 172.34Q119.36 172.34 119.82 172.08Q120.01 171.97 120.16 171.83Q120.38 171.62 120.52 171.34Q120.77 170.86 120.77 170.22L120.77 169.93Q120.77 169.31 120.52 168.83Q120.37 168.54 120.15 168.33Q120 168.19 119.82 168.09Q119.79 168.07 119.76 168.05Q119.33 167.83 118.78 167.83L117.5 167.83ZM118.1 171.86L118.1 168.32L118.79 168.32Q119.29 168.32 119.61 168.56Q119.73 168.64 119.82 168.75Q120.18 169.18 120.18 169.95L120.18 170.21Q120.18 171 119.8 171.43Q119.71 171.53 119.6 171.61Q119.25 171.86 118.73 171.86L118.1 171.86Z" fill="#828282" fill-opacity="1.000000" fill-rule="evenodd"/>
	<path id="1D" d="M150.01 168.31L150.01 167.82L149.91 167.82Q149.09 167.84 148.58 168.24Q148.44 168.36 148.33 168.5Q147.79 169.16 147.79 170.4L147.79 170.63Q147.79 171.35 148.14 171.83Q148.17 171.87 148.2 171.91Q148.39 172.15 148.64 172.27Q148.91 172.41 149.25 172.41Q149.69 172.41 150 172.21Q150.15 172.12 150.27 171.99Q150.31 171.93 150.36 171.88Q150.65 171.48 150.65 170.87Q150.65 170.3 150.38 169.91Q150.34 169.85 150.3 169.8Q150.16 169.64 149.99 169.54Q149.71 169.38 149.35 169.38Q148.93 169.38 148.63 169.57Q148.49 169.66 148.38 169.79Q148.44 169.13 148.79 168.76Q148.82 168.73 148.84 168.71Q148.9 168.65 148.98 168.59Q149.35 168.32 149.91 168.31L150.01 168.31ZM151.48 167.83L151.48 172.34L152.73 172.34Q153.33 172.34 153.79 172.08Q153.98 171.97 154.13 171.83Q154.35 171.62 154.49 171.34Q154.74 170.86 154.74 170.22L154.74 169.93Q154.74 169.31 154.49 168.83Q154.34 168.54 154.12 168.33Q153.97 168.19 153.79 168.09Q153.76 168.07 153.73 168.05Q153.3 167.83 152.75 167.83L151.48 167.83ZM152.07 171.86L152.07 168.32L152.77 168.32Q153.26 168.32 153.58 168.56Q153.7 168.64 153.79 168.75Q154.15 169.18 154.15 169.95L154.15 170.21Q154.15 171 153.77 171.43Q153.68 171.53 153.57 171.61Q153.22 171.86 152.7 171.86L152.07 171.86ZM149.02 169.89Q149.14 169.86 149.26 169.86Q149.45 169.86 149.61 169.94Q149.75 170.01 149.86 170.15Q150.08 170.43 150.08 170.9Q150.08 171.36 149.86 171.65Q149.77 171.76 149.65 171.83Q149.48 171.93 149.25 171.93Q149.12 171.93 149 171.89Q148.78 171.81 148.62 171.59Q148.37 171.25 148.37 170.69L148.37 170.48Q148.4 170.4 148.44 170.33Q148.54 170.16 148.72 170.04Q148.86 169.93 149.02 169.89Z" fill="#828282" fill-opacity="1.000000" fill-rule="evenodd"/>
	<path id="1D" d="M180.21 172.34L182.08 168.15L182.08 167.83L179.03 167.83L179.03 168.3L181.47 168.3L179.61 172.34L180.21 172.34ZM182.88 167.83L182.88 172.34L184.13 172.34Q184.74 172.34 185.2 172.08Q185.39 171.97 185.54 171.83Q185.76 171.62 185.9 171.34Q186.15 170.86 186.15 170.22L186.15 169.93Q186.14 169.31 185.9 168.83Q185.75 168.54 185.52 168.33Q185.38 168.19 185.2 168.09Q185.17 168.07 185.13 168.05Q184.7 167.83 184.16 167.83L182.88 167.83ZM183.48 171.86L183.48 168.32L184.17 168.32Q184.66 168.32 184.99 168.56Q185.1 168.64 185.2 168.75Q185.56 169.18 185.56 169.95L185.56 170.21Q185.56 171 185.18 171.43Q185.08 171.53 184.97 171.61Q184.63 171.86 184.1 171.86L183.48 171.86Z" fill="#828282" fill-opacity="1.000000" fill-rule="evenodd"/>
	<rect id="Style-7" x="29.242188" y="160.902344" rx="9.829617" width="27.773891" height="19.659233" fill="#E7E7E7" fill-opacity="0.920000"/>
	<path id="5D" d="M38.75 172.65L41.85 172.65L41.85 171.92L39.9 171.92L40.93 170.84Q41.35 170.38 41.53 170.03Q41.7 169.69 41.7 169.35Q41.7 168.89 41.48 168.59Q41.41 168.49 41.31 168.4Q40.93 168.07 40.23 168.07Q39.8 168.07 39.46 168.24Q39.44 168.25 39.41 168.26Q39.19 168.38 39.03 168.56Q38.93 168.67 38.86 168.8Q38.79 168.91 38.75 169.03Q38.66 169.28 38.66 169.55L39.56 169.55Q39.56 169.23 39.71 169.03Q39.72 169.01 39.73 169Q39.8 168.93 39.87 168.88Q40.02 168.79 40.21 168.79Q40.44 168.79 40.58 168.9Q40.62 168.93 40.65 168.96Q40.65 168.97 40.66 168.97Q40.8 169.14 40.8 169.44Q40.8 169.66 40.66 169.9Q40.51 170.15 40.21 170.48L38.75 172.03L38.75 172.65ZM42.49 168.13L42.49 172.65L43.89 172.65Q44.38 172.64 44.78 172.46Q44.87 172.42 44.95 172.37Q45.16 172.26 45.32 172.1Q45.54 171.89 45.68 171.61Q45.94 171.12 45.94 170.49L45.94 170.29Q45.94 169.68 45.69 169.19Q45.69 169.18 45.68 169.16Q45.52 168.86 45.28 168.64Q45.13 168.5 44.94 168.4Q44.88 168.36 44.8 168.33Q44.39 168.13 43.88 168.13L42.49 168.13ZM43.42 171.9L43.42 168.89L43.88 168.89Q44.29 168.89 44.55 169.08Q44.64 169.15 44.71 169.24Q45 169.6 45 170.28L45 170.52Q44.99 171.19 44.7 171.54Q44.63 171.64 44.53 171.71Q44.27 171.9 43.87 171.9L43.42 171.9Z" fill="#151515" fill-opacity="1.000000" fill-rule="evenodd"/>
	<path id="Vector 15" d="M0.07 130.67C11.14 130.67 12.21 145.08 24 145.08C35.78 145.08 32.92 104.12 43.99 104.12C55.06 104.12 48.99 69.6 64.35 69.6C79.7 69.6 72.56 104.12 86.49 104.12C100.41 104.12 98.27 63.83 107.2 63.83C116.13 63.83 113.63 87.81 124.34 87.81C135.05 87.81 130.05 48.25 141.48 48.25C152.91 48.25 151.84 65.52 162.19 65.52C172.55 65.52 173.62 85.53 187.9 85.53C202.19 85.53 193.26 107.84 206.83 107.84" stroke="#6C5FBC" stroke-opacity="1.000000" stroke-width="1.987792" stroke-linejoin="round" stroke-linecap="round"/>
	<ellipse id="Ellipse 171" cx="172.171875" cy="72.943359" rx="4.520973" ry="4.809374" fill="#C5BFED" fill-opacity="1.000000"/>
	<ellipse id="Ellipse 171" cx="172.171875" cy="72.943359" rx="3.410915" ry="3.699316" stroke="#6C5FBC" stroke-opacity="1.000000" stroke-width="2.220116"/>
	<rect id="Rectangle 40" x="171.555664" y="51.045898" rx="5.954216" width="25.648933" height="11.908433" fill="#6C5FBC" fill-opacity="1.000000"/>
	<path id="$409" d="M180.16 58.01Q180.19 57.89 180.19 57.76Q180.19 57.37 180.02 57.15Q179.87 56.98 179.68 56.88Q179.64 56.86 179.6 56.84Q179.36 56.74 178.94 56.64L178.94 55.59Q179.07 55.63 179.15 55.71Q179.18 55.73 179.2 55.76Q179.23 55.8 179.26 55.84Q179.3 55.93 179.31 56.04L180.15 56.04Q180.12 55.67 179.94 55.43Q179.87 55.34 179.79 55.27Q179.47 54.99 178.94 54.95L178.94 54.5L178.59 54.5L178.59 54.95Q178.08 54.99 177.75 55.25Q177.72 55.27 177.69 55.3Q177.54 55.43 177.45 55.6Q177.34 55.81 177.34 56.09Q177.34 56.47 177.52 56.69Q177.66 56.87 177.84 56.97Q177.89 56.99 177.94 57.01Q178.19 57.11 178.59 57.21L178.59 58.27Q178.41 58.23 178.3 58.12Q178.19 58 178.17 57.79L177.34 57.79Q177.35 58.11 177.49 58.34Q177.57 58.46 177.69 58.57Q178.03 58.85 178.59 58.9L178.59 59.36L178.94 59.36L178.94 58.91Q179.33 58.88 179.61 58.71Q179.88 58.56 180.03 58.33Q180.04 58.31 180.05 58.3Q180.13 58.16 180.16 58.01ZM189.29 58.08Q189.16 57.95 189.13 57.73L188.4 57.73Q188.42 57.95 188.5 58.14Q188.53 58.23 188.58 58.31Q188.6 58.35 188.63 58.39Q188.78 58.59 189.02 58.72Q189.31 58.88 189.72 58.88Q190.24 58.88 190.54 58.64Q190.54 58.64 190.55 58.64Q190.85 58.4 190.97 57.94Q191.1 57.48 191.1 56.76Q191.1 55.74 190.77 55.24Q190.7 55.12 190.6 55.04Q190.27 54.73 189.66 54.73Q189.13 54.73 188.79 54.98Q188.72 55.03 188.66 55.1Q188.58 55.17 188.52 55.26Q188.29 55.59 188.29 56.08Q188.29 56.49 188.46 56.78Q188.56 56.97 188.72 57.09Q188.81 57.17 188.91 57.22Q188.93 57.23 188.95 57.24Q189.22 57.37 189.55 57.37Q189.79 57.37 189.99 57.29Q190.02 57.28 190.05 57.27Q190.27 57.18 190.39 57.01Q190.4 57 190.41 56.99Q190.41 57.67 190.25 57.95Q190.18 58.08 190.07 58.15Q189.94 58.24 189.75 58.24Q189.49 58.24 189.33 58.11Q189.31 58.09 189.29 58.08ZM184.99 55.29Q184.64 55.84 184.64 56.8Q184.64 57.76 184.99 58.31Q185.08 58.47 185.22 58.58Q185.56 58.86 186.14 58.86Q186.72 58.86 187.06 58.58Q187.19 58.47 187.29 58.31Q187.64 57.76 187.64 56.8Q187.64 55.84 187.29 55.29Q187.2 55.15 187.07 55.04Q186.73 54.75 186.14 54.75Q185.55 54.75 185.21 55.04Q185.08 55.15 184.99 55.29ZM180.94 57.47L180.94 58.08L182.88 58.08L182.88 58.87L183.66 58.87L183.66 58.08L184.15 58.08L184.15 57.41L183.66 57.41L183.66 54.88L182.75 54.88L180.94 57.47ZM190.08 56.63Q189.93 56.74 189.71 56.74Q189.41 56.74 189.24 56.58Q189.22 56.57 189.21 56.55Q189.17 56.51 189.14 56.47Q189.04 56.3 189.04 56.07Q189.04 55.82 189.15 55.65Q189.18 55.61 189.21 55.58Q189.25 55.53 189.31 55.5Q189.46 55.39 189.68 55.39Q189.92 55.39 190.08 55.5Q190.12 55.53 190.16 55.57Q190.17 55.59 190.19 55.6Q190.34 55.78 190.34 56.08Q190.34 56.34 190.21 56.51Q190.19 56.53 190.17 56.56Q190.13 56.6 190.08 56.63ZM186.82 56.11Q186.87 56.39 186.87 56.8Q186.87 57.22 186.82 57.5Q186.77 57.79 186.61 57.97Q186.59 57.99 186.57 58.01Q186.41 58.14 186.14 58.14Q185.87 58.14 185.71 58.01Q185.69 57.99 185.67 57.97Q185.51 57.79 185.46 57.5Q185.41 57.22 185.41 56.8Q185.41 56.39 185.46 56.11Q185.51 55.83 185.67 55.65Q185.69 55.62 185.72 55.6Q185.87 55.47 186.14 55.47Q186.41 55.47 186.56 55.6Q186.59 55.62 186.61 55.65Q186.77 55.83 186.82 56.11ZM178.21 56.28Q178.15 56.18 178.15 56.05Q178.15 55.88 178.23 55.77Q178.25 55.74 178.27 55.72Q178.28 55.71 178.3 55.69Q178.41 55.59 178.59 55.57L178.59 56.53Q178.37 56.46 178.26 56.34Q178.23 56.31 178.21 56.28ZM181.79 57.41L182.93 55.71L182.93 57.41L181.79 57.41ZM179.25 58.14Q179.13 58.25 178.94 58.28L178.94 57.31Q179.16 57.39 179.27 57.5Q179.31 57.53 179.33 57.57Q179.39 57.66 179.39 57.79Q179.39 57.91 179.35 58Q179.32 58.06 179.27 58.11Q179.26 58.13 179.25 58.14Z" fill="#FFFFFF" fill-opacity="1.000000" fill-rule="evenodd"/>
	<g opacity="0.090000">
		<path id="Line 525" d="M0.03 124.76L206.59 124.76" stroke="#6C5FBC" stroke-opacity="1.000000" stroke-width="0.585257" stroke-linecap="round"/>
	</g>
	<g opacity="0.090000">
		<path id="Line 526" d="M0.71 100.1L207.28 100.1" stroke="#6C5FBC" stroke-opacity="1.000000" stroke-width="0.585257" stroke-linecap="round"/>
	</g>
	<g opacity="0.090000">
		<path id="Line 527" d="M0.03 74.72L206.59 74.72" stroke="#6C5FBC" stroke-opacity="1.000000" stroke-width="0.585257" stroke-linecap="round"/>
	</g>
	<rect id="Time" rx="9.133087" width="159.389481" height="18.266174" transform="translate(25.873047 -0.722656)" fill="#FFFFFF" fill-opacity="0"/>
	<g clip-path="url(#clip1_16864)">
		<rect id="Component 8" rx="9.133087" width="37.919411" height="18.266174" transform="translate(25.873047 -0.722656)" fill="#6C5FBC" fill-opacity="1.000000"/>
		<g clip-path="url(#clip1_16865)">
			<path id="Main" d="M47.54 6.3Q47.61 6.33 47.7 6.33Q47.78 6.33 47.84 6.31Q47.92 6.28 47.97 6.22Q48.02 6.17 48.05 6.1Q48.09 6.03 48.09 5.94Q48.09 5.84 48.05 5.76Q48.02 5.7 47.97 5.66Q47.92 5.6 47.84 5.57Q47.78 5.54 47.7 5.54Q47.61 5.54 47.54 5.57Q47.47 5.6 47.42 5.66Q47.37 5.71 47.34 5.77Q47.31 5.84 47.31 5.94Q47.31 6.02 47.34 6.1Q47.37 6.16 47.42 6.22Q47.47 6.27 47.54 6.3ZM42.09 10.41L42.09 5.98L41.47 5.98L39.84 9.64L38.2 5.98L37.57 5.98L37.57 10.41L38.16 10.41L38.16 7.1L39.63 10.41L40.04 10.41L41.51 7.11L41.51 10.41L42.09 10.41ZM51.5 7.05Q51.16 6.84 50.68 6.84Q50.38 6.84 50.13 6.94Q50.08 6.96 50.03 6.99Q49.84 7.08 49.7 7.22Q49.62 7.3 49.56 7.4L49.56 6.9L48.97 6.9L48.97 10.41L49.56 10.41L49.56 8.47Q49.56 7.92 49.83 7.63Q49.9 7.55 49.99 7.5Q50.22 7.34 50.56 7.34Q50.91 7.34 51.14 7.51Q51.21 7.56 51.28 7.62L51.28 7.62Q51.54 7.9 51.54 8.42L51.54 10.41L52.11 10.41L52.11 8.34Q52.11 7.68 51.79 7.3Q51.75 7.26 51.72 7.22Q51.62 7.13 51.5 7.05ZM43.08 7.7Q42.86 8.1 42.86 8.64Q42.86 9.17 43.08 9.58Q43.08 9.59 43.08 9.59Q43.24 9.88 43.47 10.09Q43.57 10.17 43.67 10.23Q43.79 10.31 43.92 10.36Q44.2 10.46 44.52 10.46Q44.95 10.46 45.29 10.28Q45.3 10.27 45.31 10.26Q45.63 10.08 45.8 9.81Q45.81 9.78 45.83 9.75L45.83 10.41L46.42 10.41L46.42 6.9L45.83 6.9L45.83 7.54Q45.82 7.52 45.8 7.5Q45.64 7.23 45.32 7.04Q44.98 6.84 44.52 6.84Q44.2 6.84 43.91 6.95Q43.79 7 43.68 7.07Q43.55 7.14 43.44 7.24Q43.22 7.43 43.08 7.7ZM47.98 10.41L47.98 6.9L47.4 6.9L47.4 10.41L47.98 10.41ZM45.67 7.96Q45.83 8.25 45.83 8.65Q45.83 9.04 45.67 9.34Q45.55 9.56 45.38 9.7Q45.31 9.75 45.24 9.79Q45.14 9.85 45.04 9.88Q44.85 9.95 44.64 9.95Q44.42 9.95 44.22 9.88Q44.13 9.84 44.05 9.79Q43.98 9.76 43.93 9.72Q43.74 9.57 43.62 9.34Q43.46 9.04 43.46 8.64Q43.46 8.24 43.62 7.95Q43.74 7.72 43.93 7.58Q43.98 7.54 44.05 7.5Q44.13 7.46 44.22 7.42Q44.41 7.35 44.64 7.35Q44.85 7.35 45.04 7.41Q45.14 7.45 45.24 7.51Q45.31 7.55 45.38 7.6Q45.55 7.74 45.67 7.96Z" fill="#FFFFFF" fill-opacity="1.000000" fill-rule="evenodd"/>
		</g>
		<g clip-path="url(#clip1_16867)">
			<path id="Weekly" d="M92.69 9.75L94.16 11.41L95.01 11.41L93.24 9.52L95 7.65L94.13 7.65L92.69 9.32L92.69 6.34L92.06 6.34L92.06 11.41L92.69 11.41L92.69 9.75ZM96.28 11.41L96.28 6.34L95.66 6.34L95.66 11.41L96.28 11.41ZM81.3 11.41L82.68 6.63L82.01 6.63L80.96 10.67L79.86 6.63L79.17 6.63L78.01 10.68L76.97 6.63L76.31 6.63L77.65 11.41L78.34 11.41L79.49 7.56L80.6 11.41L81.3 11.41ZM86.84 9.76Q86.86 9.56 86.86 9.39Q86.86 8.91 86.67 8.53Q86.65 8.5 86.63 8.46Q86.54 8.28 86.4 8.14Q86.23 7.95 86 7.82Q85.99 7.81 85.97 7.81Q85.57 7.59 85.06 7.59Q84.52 7.59 84.11 7.81Q84.1 7.82 84.09 7.83Q83.92 7.92 83.78 8.05Q83.57 8.24 83.43 8.5Q83.2 8.94 83.2 9.52Q83.2 10.1 83.44 10.55Q83.59 10.82 83.81 11.02Q83.94 11.14 84.1 11.23Q84.16 11.26 84.22 11.29Q84.6 11.47 85.06 11.47Q85.66 11.47 86.09 11.19Q86.14 11.16 86.18 11.13Q86.41 10.95 86.57 10.72Q86.71 10.51 86.78 10.25L86.11 10.25Q86.05 10.41 85.95 10.54Q85.86 10.66 85.73 10.75Q85.46 10.94 85.06 10.94Q84.75 10.94 84.51 10.82Q84.35 10.75 84.22 10.63Q84.15 10.57 84.09 10.5Q83.87 10.21 83.84 9.76L86.84 9.76ZM91.15 9.76Q91.17 9.56 91.17 9.39Q91.17 8.91 90.99 8.53Q90.97 8.5 90.95 8.46Q90.85 8.28 90.71 8.14Q90.54 7.95 90.32 7.82Q90.3 7.81 90.29 7.81Q89.89 7.59 89.37 7.59Q88.84 7.59 88.43 7.81Q88.41 7.82 88.4 7.83Q88.23 7.92 88.1 8.05Q87.89 8.24 87.75 8.5Q87.52 8.94 87.52 9.52Q87.52 10.1 87.75 10.55Q87.9 10.82 88.12 11.02Q88.26 11.14 88.42 11.23Q88.48 11.26 88.54 11.29Q88.91 11.47 89.37 11.47Q89.98 11.47 90.41 11.19Q90.45 11.16 90.5 11.13Q90.73 10.95 90.88 10.72Q91.02 10.51 91.1 10.25L90.43 10.25Q90.37 10.41 90.27 10.54Q90.17 10.66 90.05 10.75Q89.78 10.94 89.37 10.94Q89.07 10.94 88.82 10.82Q88.67 10.75 88.53 10.63Q88.46 10.57 88.41 10.5Q88.18 10.21 88.15 9.76L91.15 9.76ZM98.39 13.17L100.65 7.65L100 7.65L98.84 10.69L97.66 7.65L96.97 7.65L98.48 11.36L97.74 13.17L98.39 13.17ZM86.06 8.64Q86.21 8.9 86.21 9.25L83.84 9.25Q83.88 8.81 84.12 8.53Q84.17 8.47 84.22 8.42Q84.36 8.3 84.51 8.23Q84.74 8.12 85.03 8.12Q85.32 8.12 85.56 8.22Q85.6 8.24 85.63 8.25Q85.76 8.32 85.87 8.42Q85.98 8.51 86.06 8.64ZM90.37 8.64Q90.53 8.9 90.53 9.25L88.16 9.25Q88.2 8.81 88.43 8.53Q88.48 8.47 88.54 8.42Q88.67 8.3 88.83 8.23Q89.06 8.12 89.34 8.12Q89.63 8.12 89.88 8.22Q89.91 8.24 89.94 8.25Q90.08 8.32 90.19 8.42Q90.29 8.51 90.37 8.64Z" fill="#828282" fill-opacity="1.000000" fill-rule="evenodd"/>
		</g>
		<g clip-path="url(#clip1_16869)">
			<path id="Montly" d="M137.29 11.41L137.29 6.34L136.67 6.34L136.67 11.41L137.29 11.41ZM124.08 11.41L124.08 6.67L123.42 6.67L121.66 10.58L119.91 6.67L119.24 6.67L119.24 11.41L119.86 11.41L119.86 7.86L121.44 11.41L121.88 11.41L123.46 7.87L123.46 11.41L124.08 11.41ZM134.87 10.38L134.87 8.17L135.85 8.17L135.85 7.65L134.87 7.65L134.87 6.71L134.25 6.71L134.25 7.65L133.76 7.65L133.76 8.17L134.25 8.17L134.25 10.38Q134.25 10.93 134.51 11.17Q134.77 11.41 135.29 11.41L135.85 11.41L135.85 10.88L135.39 10.88Q135.1 10.88 134.98 10.76Q134.87 10.65 134.87 10.38ZM132.36 7.81Q132 7.58 131.49 7.58Q131.17 7.58 130.89 7.69Q130.84 7.71 130.78 7.74Q130.58 7.84 130.44 7.99Q130.35 8.08 130.28 8.19L130.28 7.65L129.66 7.65L129.66 11.41L130.28 11.41L130.28 9.33Q130.28 8.74 130.57 8.43Q130.65 8.35 130.74 8.29Q130.99 8.12 131.35 8.12Q131.73 8.12 131.98 8.3Q132.06 8.35 132.12 8.42L132.12 8.42Q132.4 8.72 132.4 9.28L132.4 11.41L133.02 11.41L133.02 9.19Q133.02 8.48 132.67 8.08Q132.63 8.03 132.6 8Q132.49 7.89 132.36 7.81ZM126.08 11.32Q126.43 11.47 126.84 11.47Q127.26 11.47 127.62 11.32Q127.72 11.28 127.81 11.23Q128 11.12 128.16 10.98Q128.36 10.8 128.51 10.55Q128.52 10.52 128.53 10.5Q128.77 10.08 128.77 9.52Q128.77 8.94 128.51 8.5Q128.37 8.24 128.16 8.06Q128.01 7.92 127.83 7.83Q127.76 7.79 127.68 7.75Q127.31 7.59 126.87 7.59Q126.42 7.59 126.05 7.76Q125.97 7.79 125.9 7.83Q125.74 7.92 125.6 8.04Q125.37 8.23 125.22 8.51Q125.21 8.52 125.2 8.54Q124.97 8.97 124.97 9.52Q124.97 10.1 125.21 10.55Q125.36 10.81 125.57 11Q125.71 11.13 125.89 11.23Q125.98 11.28 126.08 11.32ZM139.4 13.17L141.66 7.65L141.01 7.65L139.85 10.69L138.67 7.65L137.98 7.65L139.49 11.36L138.75 13.17L139.4 13.17ZM127.19 10.87Q127.02 10.92 126.84 10.92Q126.61 10.92 126.41 10.85Q126.32 10.81 126.23 10.76Q126.18 10.74 126.13 10.71Q125.91 10.56 125.78 10.3Q125.61 9.98 125.61 9.52Q125.61 9.07 125.78 8.75Q125.92 8.49 126.14 8.34Q126.18 8.31 126.24 8.28Q126.31 8.24 126.39 8.22Q126.61 8.13 126.86 8.13Q127.06 8.13 127.25 8.19Q127.37 8.22 127.48 8.28Q127.54 8.31 127.58 8.34Q127.8 8.49 127.95 8.75Q128.13 9.07 128.13 9.52Q128.13 9.97 127.95 10.29Q127.81 10.53 127.6 10.68Q127.54 10.72 127.47 10.76Q127.33 10.84 127.19 10.87Z" fill="#828282" fill-opacity="1.000000" fill-rule="evenodd"/>
		</g>
		<g clip-path="url(#clip1_16871)">
			<path id="Yearly" d="M176.16 11.41L176.16 6.34L175.54 6.34L175.54 11.41L176.16 11.41ZM161.62 9.6L163.17 6.63L162.48 6.63L161.3 9.05L160.12 6.63L159.43 6.63L160.99 9.6L160.99 11.41L161.62 11.41L161.62 9.6ZM173.78 7.93Q173.63 8.07 173.54 8.26L173.54 7.65L172.91 7.65L172.91 11.41L173.54 11.41L173.54 9.36Q173.54 8.75 173.84 8.47Q174.1 8.23 174.58 8.23L174.75 8.23L174.75 7.58Q174.31 7.58 174 7.76Q173.88 7.83 173.78 7.93ZM167.3 9.76Q167.32 9.56 167.32 9.39Q167.32 8.91 167.14 8.53Q167.12 8.5 167.1 8.46Q167 8.28 166.86 8.14Q166.69 7.95 166.47 7.82Q166.45 7.81 166.44 7.81Q166.04 7.59 165.52 7.59Q164.99 7.59 164.58 7.81Q164.56 7.82 164.55 7.83Q164.38 7.92 164.24 8.05Q164.04 8.24 163.9 8.5Q163.67 8.94 163.67 9.52Q163.67 10.1 163.9 10.55Q164.05 10.82 164.27 11.02Q164.41 11.14 164.57 11.23Q164.63 11.26 164.69 11.29Q165.06 11.47 165.52 11.47Q166.13 11.47 166.56 11.19Q166.6 11.16 166.65 11.13Q166.88 10.95 167.03 10.72Q167.17 10.51 167.25 10.25L166.58 10.25Q166.52 10.41 166.42 10.54Q166.32 10.66 166.2 10.75Q165.93 10.94 165.52 10.94Q165.22 10.94 164.97 10.82Q164.82 10.75 164.68 10.63Q164.61 10.57 164.56 10.5Q164.33 10.21 164.3 9.76L167.3 9.76ZM168.21 8.5Q167.98 8.94 167.98 9.52Q167.98 10.08 168.21 10.53Q168.21 10.53 168.21 10.53Q168.38 10.85 168.63 11.06Q168.74 11.15 168.85 11.22Q168.98 11.3 169.11 11.35Q169.41 11.47 169.75 11.47Q170.22 11.47 170.58 11.27Q170.59 11.26 170.61 11.25Q170.94 11.05 171.13 10.76Q171.14 10.73 171.16 10.71L171.16 11.41L171.79 11.41L171.79 7.65L171.16 7.65L171.16 8.34Q171.15 8.31 171.13 8.29Q170.96 8 170.62 7.8Q170.25 7.59 169.76 7.59Q169.41 7.59 169.11 7.71Q168.98 7.76 168.85 7.83Q168.71 7.91 168.6 8.02Q168.37 8.22 168.21 8.5ZM178.26 13.17L180.52 7.65L179.88 7.65L178.71 10.69L177.54 7.65L176.84 7.65L178.36 11.36L177.62 13.17L178.26 13.17ZM166.52 8.64Q166.68 8.9 166.68 9.25L164.31 9.25Q164.35 8.81 164.58 8.53Q164.63 8.47 164.69 8.42Q164.82 8.3 164.98 8.23Q165.21 8.12 165.49 8.12Q165.78 8.12 166.03 8.22Q166.06 8.24 166.09 8.25Q166.23 8.32 166.34 8.42Q166.44 8.51 166.52 8.64ZM170.99 8.78Q171.16 9.1 171.16 9.52Q171.16 9.95 170.99 10.26Q170.86 10.5 170.67 10.65Q170.6 10.71 170.53 10.75Q170.42 10.81 170.32 10.85Q170.11 10.92 169.89 10.92Q169.65 10.92 169.44 10.84Q169.34 10.8 169.25 10.75Q169.18 10.71 169.12 10.67Q168.92 10.51 168.79 10.26Q168.62 9.95 168.62 9.52Q168.62 9.09 168.79 8.78Q168.92 8.53 169.12 8.38Q169.18 8.33 169.25 8.3Q169.34 8.25 169.43 8.21Q169.64 8.13 169.89 8.13Q170.11 8.13 170.31 8.2Q170.42 8.24 170.53 8.3Q170.61 8.35 170.68 8.4Q170.86 8.55 170.99 8.78Z" fill="#828282" fill-opacity="1.000000" fill-rule="evenodd"/>
		</g>
	</g>
</svg>
