<svg width="300.000000" height="435.000000" viewBox="0 0 300 435" fill="none" xmlns="http://www.w3.org/2000/svg" xmlns:xlink="http://www.w3.org/1999/xlink">
	<g opacity="0.200000">
		<path id="Vector 6" d="M249.54 2.15C226.06 4.34 200.56 4.69 177.69 9.81C155.3 14.83 131.72 23.93 112.03 33.54C75.73 51.25 57.14 76.04 40.28 105.63C12.44 154.44 2.37 205.07 1.93 258.12C1.64 293.23 2.99 327.99 6.66 362.99C7.78 373.68 7.22 385.9 15.06 395.12" stroke="#A596FF" stroke-opacity="1.000000" stroke-width="4.448742" stroke-linecap="round"/>
	</g>
	<g opacity="0.200000">
		<path id="Vector 8" d="M297 27.36C272.81 29.62 246.55 29.97 222.99 35.25C199.93 40.42 175.65 49.79 155.36 59.7C117.98 77.94 98.83 103.48 81.46 133.96C52.8 184.25 42.42 236.41 41.97 291.05C41.68 327.23 43.07 363.04 46.84 399.1C47.99 410.1 47.42 422.69 55.5 432.2" stroke="#A596FF" stroke-opacity="1.000000" stroke-width="4.448742" stroke-linecap="round"/>
	</g>
</svg>
