<svg width="458.000000" height="708.000000" viewBox="0 0 458 708" fill="none" xmlns="http://www.w3.org/2000/svg" xmlns:xlink="http://www.w3.org/1999/xlink">
	<g opacity="0.200000">
		<path id="Vector 4" d="M377.88 674.86C381.7 652.49 387.27 631.44 385.84 607.31C384.82 590.08 380.55 573.12 372.35 556.94C357.05 526.77 337.05 498.01 313.28 475.09C288.99 451.67 265.14 426.19 237.71 408.21C212.2 391.49 185 377.68 160.13 359.51C118.47 329.06 88.98 280.48 63.95 233.85C50.71 209.19 37.58 184.35 24.9 159.39C16.95 143.73 10.27 126.93 0.49 112.38" stroke="#A596FF" stroke-opacity="1.000000" stroke-width="2.856298" stroke-linecap="round"/>
	</g>
	<g opacity="0.200000">
		<path id="Vector 7" d="M408.93 666.84C413.05 642.67 419.06 619.93 417.51 593.87C416.41 575.25 411.79 556.93 402.93 539.44C386.4 506.84 364.79 475.77 339.11 451C312.87 425.7 287.1 398.16 257.47 378.73C229.92 360.66 200.53 345.73 173.67 326.09C128.66 293.19 96.8 240.7 69.76 190.32C55.45 163.66 41.26 136.83 27.56 109.86C18.97 92.93 11.75 74.79 1.18 59.06" stroke="#A596FF" stroke-opacity="1.000000" stroke-width="2.856298" stroke-linecap="round"/>
	</g>
</svg>
